<svg class="navbar__logo-icon" width="350" height="26" viewBox="0 0 350 26" fill="none" xmlns="http://www.w3.org/2000/svg">
                    <!-- Three horizontal colored lines -->
                    <path d="M27.4961 17.4805C28.3052 17.4805 28.9957 18.2043 29.0396 19.0757L29.0419 19.1629L29.0396 19.251C29.0137 19.6641 28.8512 20.053 28.5822 20.3458C28.3132 20.6386 27.9558 20.8155 27.5763 20.8437L27.4961 20.8462L0 20.8437V17.483L27.4961 17.4805Z" fill="#FFCD00"/>
                    <path d="M19.0551 11.6589C19.8642 11.6589 20.5554 12.3827 20.5986 13.2542L20.6009 13.3414L20.5986 13.4295C20.5727 13.8426 20.4102 14.2315 20.1411 14.5243C19.8721 14.8171 19.5148 14.9939 19.1352 15.0222L19.0551 15.0247C6.37893 15.023 0.0277412 15.0213 0 15.0188V11.6648L19.0551 11.6589Z" fill="#E82112"/>
                    <path d="M10.5725 5.8374C11.4078 5.8374 12.1183 6.61069 12.1183 7.51985C12.1183 8.4005 11.4926 9.15282 10.6565 9.20063L10.5717 9.20314H0V5.8374H10.5725Z" fill="#1D1D1D"/>
                    <!-- gematik text -->
                    <path d="M58.1363 8.3469C56.6352 6.67871 54.4044 6.25684 52.9503 6.25684C48.7583 6.25684 46.2847 8.90548 46.2847 12.9011C46.2847 16.7114 48.6373 19.2275 52.0047 19.2275C52.9734 19.2275 53.5066 18.7251 53.5066 17.8772C53.5066 17.0812 52.9734 16.6317 52.0047 16.6317C50.1384 16.6317 48.8284 15.1765 48.8284 12.8977C48.8284 10.437 50.2601 8.84677 52.8038 8.84677C53.6284 8.84677 54.8166 9.08329 55.494 9.79871L55.4685 19.0639C55.4685 21.0215 53.8457 21.9214 51.8321 21.9214C49.992 21.9214 48.7775 21.0215 48.534 20.889C47.5407 20.3581 46.5729 20.8605 46.5729 21.8937C46.5729 23.6416 49.4803 24.5139 51.8576 24.5139C55.3946 24.5139 58.1363 22.8222 58.1363 19.0597V8.3469Z" fill="#000E52"/>
                    <path d="M72.5356 12.6637C72.5356 8.77213 70.2831 6.25684 67.0336 6.25684C63.6145 6.25684 61.0962 8.8778 61.0962 12.7686C61.0962 16.9764 63.7131 19.4925 67.2062 19.4925C68.9508 19.4925 70.5513 19.0144 71.98 17.7203L70.7208 15.5221C69.7522 16.6065 68.5162 17.1097 67.3534 17.1097C65.6558 17.1097 63.9111 16.1846 63.6938 13.6928H72.4878C72.5101 13.3792 72.5356 13.0051 72.5356 12.6637Z" fill="#000E52"/>
                    <path d="M63.7608 11.6026C64.0767 9.83036 65.2403 8.66455 66.9842 8.66455C68.6078 8.66455 69.6496 9.697 69.9401 11.6026H63.7608Z" fill="white"/>
                    <path d="M88.0961 6.25684C86.642 6.25684 85.0892 6.7349 83.9264 7.52664C83.0063 6.67955 81.6956 6.25684 80.1205 6.25684C78.1809 6.25684 76.098 7.10477 75.0045 8.3469V19.2275H77.5483L77.5228 9.80542C78.4429 9.01032 79.4146 8.85348 80.357 8.85348C81.9583 8.85348 82.9 9.88593 82.9 11.6866V19.2275H85.4437V11.6833C85.4437 10.9955 85.3705 10.385 85.2272 9.82974C85.9554 9.24767 86.9718 8.84929 88.0128 8.84929C89.5401 8.84929 90.5566 9.72155 90.5566 11.6833V19.2275H93.0995V11.6833C93.1126 8.08187 91.1992 6.25684 88.0961 6.25684Z" fill="#000E52"/>
                    <path d="M101.163 29.4681C97.6188 29.4681 96.4528 28.0251 96.4528 26.6301C96.4528 25.2351 97.4418 23.9301 100.673 23.6151L106.594 23.0271V28.7021C105.293 29.1531 103.268 29.4681 101.163 29.4681Z" fill="white"/>
                    <!-- a, t, i, k paths -->
                    <path d="M100.845 6.25674C99.2704 6.25674 97.5473 6.62661 95.9245 7.73958L96.8708 9.99067C97.9126 9.32809 99.3914 8.72003 100.75 8.72003C102.52 8.72003 103.536 9.45977 103.536 11.1565V11.3687L100.65 11.6865C97.4526 12.0321 95.5122 13.2742 95.5122 15.6293C95.5122 17.9609 96.9917 19.4924 100.724 19.4924C102.615 19.4924 104.795 18.99 106.08 18.2469V10.9954C106.08 7.87209 104.166 6.28441 100.845 6.25674Z" fill="#000E52"/>
                    <path d="M100.603 17.3218C98.6884 17.3218 98.0596 16.4747 98.0596 15.6545C98.0596 14.8342 98.5928 14.0668 100.337 13.8814L103.535 13.5359V16.8723C102.833 17.1373 101.74 17.3218 100.603 17.3218Z" fill="white"/>
                    <path d="M111.678 9.0379H116.139V6.52177H111.678V2.71151H109.135V14.5449C109.135 17.9333 110.684 19.4933 113.304 19.4933C114.783 19.4933 115.947 18.9095 116.867 18.2226L115.873 16C115.17 16.4781 114.324 16.8723 113.522 16.8723C112.502 16.8723 111.681 16.1845 111.681 14.4887V9.0379H111.678Z" fill="#000E52"/>
                    <path d="M119.215 19.2274H121.759V6.52177H119.215V19.2274ZM120.478 0.432736C119.458 0.432736 118.708 1.30499 118.708 2.39028C118.708 3.50325 119.458 4.32351 120.478 4.32351C121.497 4.32351 122.27 3.50325 122.27 2.39028C122.273 2.13297 122.228 1.87767 122.139 1.63929C122.05 1.40092 121.918 1.18426 121.751 1.00199C121.585 0.819725 121.386 0.675501 121.167 0.577758C120.949 0.480015 120.714 0.430713 120.478 0.432736Z" fill="#000E52"/>
                    <path d="M128.376 11.3653H128.281V0.697768H125.737V19.2274H128.281V13.8814H128.354L133.419 19.2274H136.86L130.533 12.5034L136.813 6.52177H133.394L128.376 11.3653Z" fill="#000E52"/>
                    <!-- Developer Portal text -->
                    <text x="143" y="19" font-family="Inter, -apple-system, BlinkMacSystemFont, 'Segoe UI', sans-serif" font-size="22" font-weight="800" fill="#000E52">Developer Portal</text>
                </svg>
